<svg width="564" height="88" viewBox="0 0 564 88" fill="none" xmlns="http://www.w3.org/2000/svg">
<path d="M102.23 11H148.31V21.17H131.57V73.82H119V21.14H102.23V11Z" fill="#23365E"/>
<path d="M170.07 74.6C155.58 74.6 145.07 64.52 145.07 48.86C145.07 33.2 155.33 23.12 170.07 23.12C184.47 23.12 194.64 32.93 194.64 47.78C194.654 49.4072 194.534 51.0327 194.28 52.64H157.83C158.46 60.02 163.5 64.16 169.83 64.16C175.23 64.16 178.2 61.46 179.83 58.16H193.42C190.68 67.31 182.4 74.6 170.07 74.6ZM157.92 44.18H181.59C181.41 37.61 176.19 33.47 169.71 33.47C163.68 33.47 158.91 37.34 157.92 44.18V44.18Z" fill="#23365E"/>
<path d="M220.65 23.12C228.65 23.12 234.15 26.9 237.12 31.04V23.93H249.81V73.79H237.12V66.5C234.12 70.82 228.48 74.6 220.56 74.6C207.96 74.6 197.88 64.25 197.88 48.68C197.88 33.11 208 23.12 220.65 23.12ZM223.89 34.19C217.14 34.19 210.75 39.19 210.75 48.68C210.75 58.17 217.14 63.53 223.89 63.53C230.82 63.53 237.12 58.31 237.12 48.86C237.12 39.41 230.82 34.19 223.89 34.19Z" fill="#23365E"/>
<path d="M280.86 23.12C293.28 23.12 301.65 29.6 304.35 40.76H290.76C289.32 36.53 285.99 33.83 280.76 33.83C273.76 33.83 269.06 39.14 269.06 48.83C269.06 58.52 273.74 63.77 280.76 63.77C285.98 63.77 289.22 61.43 290.76 56.93H304.35C301.65 67.55 293.28 74.57 280.86 74.57C266.46 74.57 256.2 64.49 256.2 48.83C256.2 33.17 266.46 23.12 280.86 23.12Z" fill="#23365E"/>
<path d="M310.92 7.19H323.52V30.14C326.76 25.91 332.34 23.21 339 23.21C350.25 23.21 358.44 30.77 358.44 44.54V73.79H345.84V46.25C345.84 38.25 341.43 33.92 334.77 33.92C327.93 33.92 323.52 38.24 323.52 46.25V73.79H310.92V7.19Z" fill="#23365E"/>
<path d="M406.72 47.06H379.81V73.79H367.21V11H379.81V36.8H406.72V11H419.32V73.82H406.72V47.06Z" fill="#23365E"/>
<path d="M450.82 74.6C436.33 74.6 425.82 64.52 425.82 48.86C425.82 33.2 436.08 23.12 450.82 23.12C465.22 23.12 475.39 32.93 475.39 47.78C475.404 49.4072 475.284 51.0327 475.03 52.64H438.58C439.21 60.02 444.25 64.16 450.58 64.16C455.98 64.16 458.95 61.46 460.58 58.16H474.17C471.43 67.31 463.15 74.6 450.82 74.6ZM438.67 44.18H462.34C462.16 37.61 456.94 33.47 450.46 33.47C444.43 33.47 439.66 37.34 438.67 44.18V44.18Z" fill="#23365E"/>
<path d="M494.47 73.79H481.87V23.93H494.47V31.67C496.038 29.0275 498.283 26.8506 500.972 25.3637C503.661 23.8767 506.698 23.1333 509.77 23.21V36.44H506.44C498.97 36.44 494.44 39.32 494.44 48.95L494.47 73.79Z" fill="#23365E"/>
<path d="M537.67 74.6C523.27 74.6 512.38 64.52 512.38 48.86C512.38 33.2 523.63 23.12 538.03 23.12C552.43 23.12 563.68 33.12 563.68 48.86C563.68 64.6 552.16 74.6 537.67 74.6ZM537.67 63.6C544.33 63.6 550.72 58.74 550.72 48.84C550.72 38.94 544.51 34.08 537.85 34.08C531.19 34.08 525.16 38.85 525.16 48.84C525.16 58.83 530.92 63.62 537.67 63.62V63.6Z" fill="#23365E"/>
<path d="M61.07 87.08L78.13 78.72L86.49 61.67L68.83 44L60.46 61.05L43.41 69.42L61.07 87.08Z" fill="#F97316"/>
<path d="M25.74 0.920044L8.69 9.28003L0.320007 26.33L17.99 44L26.35 26.95L43.41 18.58L25.74 0.920044Z" fill="#55B5A6"/>
<path d="M86.49 26.33L78.13 9.28003L61.07 0.920044L43.41 18.58L60.46 26.95L68.83 44L86.49 26.33Z" fill="#4BA3E3"/>
<path d="M0.320007 61.67L8.69 78.72L25.74 87.08L43.41 69.42L26.35 61.05L17.99 44L0.320007 61.67Z" fill="#EC4899"/>
</svg>
